<svg xmlns="http://www.w3.org/2000/svg" viewBox="0 0 1600 900" preserveAspectRatio="xMidYMid slice">
<defs>
<linearGradient id="sky" x1="0" y1="0" x2="1" y2="1"><stop stop-color="#050713"/><stop offset=".35" stop-color="#24102f"/><stop offset=".72" stop-color="#702219"/><stop offset="1" stop-color="#f18436"/></linearGradient>
<radialGradient id="sun"><stop stop-color="#fff8d0"/><stop offset=".2" stop-color="#ffd674"/><stop offset=".56" stop-color="#ff9d43" stop-opacity=".72"/><stop offset="1" stop-color="#ff5c25" stop-opacity="0"/></radialGradient>
<linearGradient id="rock" x1="0" y1="0" x2="1" y2="1"><stop stop-color="#3c2e43"/><stop offset=".5" stop-color="#17121f"/><stop offset="1" stop-color="#07070b"/></linearGradient>
<linearGradient id="lava" x1="0" y1="0" x2="0" y2="1"><stop stop-color="#fff06b"/><stop offset=".3" stop-color="#ffb03e"/><stop offset=".7" stop-color="#ff5f17"/><stop offset="1" stop-color="#94140d"/></linearGradient>
<radialGradient id="portal"><stop stop-color="#f9d7ff"/><stop offset=".23" stop-color="#d763ff"/><stop offset=".55" stop-color="#8b2ce9"/><stop offset="1" stop-color="#17052e"/></radialGradient>
<filter id="b18"><feGaussianBlur stdDeviation="18"/></filter>
<filter id="b8"><feGaussianBlur stdDeviation="8"/></filter>
</defs>
<rect width="1600" height="900" fill="url(#sky)"/>
<circle cx="1390" cy="220" r="225" fill="url(#sun)"/><circle cx="1390" cy="220" r="49" fill="#fff6ca"/>
<g opacity=".46" filter="url(#b18)" fill="#d94cff"><ellipse cx="980" cy="160" rx="350" ry="90"/><ellipse cx="500" cy="190" rx="280" ry="75"/></g>
<g fill="#130d1a"><path d="M0 520 155 350 300 475 450 300 660 520V760H0z"/><path d="M930 520 1090 335 1230 465 1390 295 1600 520V760H930z"/></g>
<g>
<path d="M80 245h235l44 28-43 28H83l-35-28z" fill="url(#rock)" stroke="#4a394d" stroke-width="5"/><path d="M104 301 167 520h73l67-219z" fill="#141019"/><path d="M151 395v116" stroke="#70ddff" stroke-width="7" opacity=".27"/>
<path d="M1030 255h235l45 29-43 28h-236l-37-28z" fill="url(#rock)" stroke="#4a394d" stroke-width="5"/><path d="M1054 314 1128 542h55l72-228z" fill="#141019"/><path d="M1092 395v125" stroke="#70ddff" stroke-width="7" opacity=".21"/>
<path d="M1370 372h155l30 24-29 26h-156l-27-25z" fill="url(#rock)" stroke="#4a394d" stroke-width="4"/><path d="M1388 425 1430 594h40l44-169z" fill="#131018"/>
</g>
<g fill="url(#rock)" stroke="#4a3a50" stroke-width="7">
<path d="M355 675V428h111V312l71 49v-100h102v97l68-47v117h111v247z"/>
<path d="M690 675V280h118V121l80 61V69h124v120l78-62v160h118v388z"/>
<path d="M1044 675V424h105V302l71 48v-92h100v91l70-49v124h101v251z"/>
</g>
<g fill="#1b1420" stroke="#4e3c52" stroke-width="5">
<path d="M396 428V315h63l39-75 39 75v113z"/><path d="M560 443V330h63l35-72 36 72v113z"/>
<path d="M725 290V134h68l42-89 41 89v156z"/><path d="M914 303V189h68l39-77 39 77v114z"/>
<path d="M1078 428V307h63l36-74 37 74v121z"/><path d="M1240 443V326h63l36-74 37 74v117z"/>
</g>
<g fill="url(#lava)">
<rect x="506" y="388" width="14" height="220" rx="7"/><rect x="652" y="401" width="11" height="206" rx="5"/><rect x="790" y="244" width="17" height="340" rx="8"/><rect x="1001" y="247" width="14" height="336" rx="7"/><rect x="1147" y="390" width="12" height="216" rx="6"/><rect x="1310" y="397" width="11" height="210" rx="6"/>
</g>
<ellipse cx="905" cy="500" rx="123" ry="184" fill="#9c38ff" opacity=".26" filter="url(#b18)"/>
<path d="M806 642V398q99-116 198 0v244z" fill="url(#portal)" stroke="#9f40ec" stroke-width="11"/>
<path d="M836 609V429q69-74 138 0v180z" fill="#17072d" stroke="#c26bff" stroke-width="4"/>
<ellipse cx="905" cy="507" rx="47" ry="84" fill="#cb5dff" opacity=".84" filter="url(#b8)"/><ellipse cx="905" cy="507" rx="28" ry="54" fill="#e3a9ff"/>
<g fill="url(#lava)" stroke="#a74b16" stroke-width="2"><path d="M838 642h134l14 16H824z"/><path d="M826 662h158l14 16H812z"/><path d="M811 683h188l16 17H795z"/><path d="M795 705h222l16 18H779z"/><path d="M777 728h259l18 18H759z"/><path d="M756 752h302l19 19H737z"/></g>
<path d="M0 740h530l-106 160H0z" fill="#08070c"/><path d="M1170 720h430v180h-590z" fill="#08070c"/>
<g fill="#ff9a2c"><circle cx="135" cy="692" r="8"/><circle cx="174" cy="717" r="6"/><circle cx="1460" cy="704" r="7"/><circle cx="1509" cy="735" r="5"/></g>
<g transform="translate(1120 515)">
<path d="M72 130h122l35 220H33z" fill="#13151c" stroke="#3b3440" stroke-width="7"/><path d="M92 333h40l13 75H88zM155 333h40l18 75h-56z" fill="#0a0a0f"/>
<rect x="82" y="45" width="100" height="98" rx="10" fill="#202128" stroke="#49414e" stroke-width="7"/><rect x="65" y="18" width="134" height="90" rx="14" fill="#27282e" stroke="#534954" stroke-width="7"/><rect x="87" y="33" width="90" height="56" fill="#08090d"/><rect x="106" y="50" width="16" height="9" fill="#ffb53b"/><rect x="146" y="50" width="16" height="9" fill="#ffb53b"/>
<path d="M66 100 26 260l47 15 55-142z" fill="#1a1b21"/><path d="M198 98 235 260l-45 16-54-143z" fill="#1a1b21"/>
<path d="M82 142 37 316l59 18 43-157z" fill="#1c1d24"/><path d="M176 142 239 282l-46 30-49-135z" fill="#1c1d24"/>
<path d="M167 101 301 189l-39 121-114-93z" fill="#7e2028" stroke="#a94144" stroke-width="4"/><path d="M168 104 287 180l-30 52-101-80z" fill="#c3343b" opacity=".62"/>
<path d="M232 302 331 120" stroke="#ffe17a" stroke-width="7"/><path d="M233 302 331 120" stroke="#fff5ba" stroke-width="2"/>
</g>
<g fill="#ffb63d"><circle cx="267" cy="190" r="4"/><circle cx="368" cy="150" r="3"/><circle cx="1240" cy="157" r="4"/><circle cx="1294" cy="300" r="3"/><circle cx="720" cy="210" r="4"/><circle cx="1090" cy="170" r="3"/><circle cx="540" cy="590" r="3"/><circle cx="1210" cy="625" r="4"/></g>
<rect width="1600" height="900" fill="none" stroke="#000" stroke-width="180" opacity=".30"/>
</svg>