<svg xmlns="http://www.w3.org/2000/svg" viewBox="0 0 1600 900" preserveAspectRatio="xMidYMid slice">
<defs>
 <linearGradient id="sky" x1="0" y1="0" x2="1" y2="1"><stop stop-color="#070814"/><stop offset=".43" stop-color="#24112f"/><stop offset=".78" stop-color="#7a2817"/><stop offset="1" stop-color="#ed7b24"/></linearGradient>
 <linearGradient id="cloud" x1="0" y1="0" x2="1" y2="0"><stop stop-color="#6e3b93" stop-opacity=".15"/><stop offset=".5" stop-color="#ef71c2" stop-opacity=".22"/><stop offset="1" stop-color="#ffb455" stop-opacity=".2"/></linearGradient>
 <radialGradient id="sun"><stop stop-color="#fffbd3"/><stop offset=".22" stop-color="#ffcf6e"/><stop offset="1" stop-color="#ff7e23" stop-opacity="0"/></radialGradient>
 <linearGradient id="rock" x1="0" y1="0" x2="1" y2="1"><stop stop-color="#3a3040"/><stop offset="1" stop-color="#0b0b10"/></linearGradient>
 <linearGradient id="lava" x1="0" y1="0" x2="0" y2="1"><stop stop-color="#ffe275"/><stop offset=".35" stop-color="#ff8b1b"/><stop offset="1" stop-color="#b11c13"/></linearGradient>
 <radialGradient id="portal"><stop stop-color="#f1ceff"/><stop offset=".3" stop-color="#b43cff"/><stop offset=".66" stop-color="#7018e1"/><stop offset="1" stop-color="#180530"/></radialGradient>
 <filter id="blur20"><feGaussianBlur stdDeviation="20"/></filter><filter id="blur8"><feGaussianBlur stdDeviation="8"/></filter>
</defs>
<rect width="1600" height="900" fill="url(#sky)"/>
<g opacity=".55" filter="url(#blur20)"><ellipse cx="430" cy="155" rx="330" ry="90" fill="url(#cloud)"/><ellipse cx="1000" cy="155" rx="420" ry="105" fill="url(#cloud)"/></g>
<circle cx="1410" cy="210" r="210" fill="url(#sun)"/><circle cx="1410" cy="210" r="48" fill="#fff6c4"/>

<!-- distant terrain -->
<g fill="#130e19"><path d="M0 560 160 360 300 510 470 290 690 550v250H0z"/><path d="M930 540 1100 330 1260 490 1435 300 1600 520v280H930z"/></g>

<!-- floating islands -->
<g>
 <g><path d="M105 230h220l34 26-31 25H102l-29-25z" fill="url(#rock)"/><path d="M136 280 196 480h70l57-200z" fill="#17131c"/><path d="M173 386v104" stroke="#70ddff" stroke-width="6" opacity=".35"/></g>
 <g><path d="M1030 225h230l36 27-36 28h-232l-32-28z" fill="url(#rock)"/><path d="M1070 285 1137 505h60l62-220z" fill="#17131c"/><path d="M1100 378v120" stroke="#70ddff" stroke-width="6" opacity=".27"/></g>
 <g><path d="M1370 365h145l28 22-28 25h-148l-27-24z" fill="url(#rock)"/><path d="M1390 412 1434 565h46l42-153z" fill="#17131c"/></g>
</g>

<!-- castle body -->
<g fill="url(#rock)" stroke="#45384c" stroke-width="7">
 <path d="M360 660V430h105V318l68 48v-87h92v88l68-48v111h98v230z"/>
 <path d="M690 680V285h118V130l73 58V66h120v122l72-58v155h118v395z"/>
 <path d="M1060 665V425h100V310l65 48v-90h94v89l66-47v115h98v240z"/>
</g>

<!-- tall spires -->
<g fill="#19141f">
 <path d="M402 430V315h58l36-72 36 72v115z"/><path d="M555 435V334h59l33-67 33 67v101z"/>
 <path d="M730 292V139h69l39-88 40 88v153z"/><path d="M922 307V185h67l38-76 37 76v122z"/>
 <path d="M1090 430V320h60l34-72 35 72v110z"/><path d="M1240 435V325h58l35-72 35 72v110z"/>
</g>

<!-- warm windows -->
<g fill="#ffb52e">
 <g opacity=".95"><rect x="428" y="355" width="17" height="34" rx="3"/><rect x="580" y="360" width="17" height="30" rx="3"/><rect x="758" y="200" width="20" height="38" rx="3"/><rect x="953" y="212" width="20" height="36" rx="3"/><rect x="1113" y="350" width="18" height="35" rx="3"/><rect x="1262" y="355" width="18" height="35" rx="3"/></g>
 <g fill="#fff2a0"><rect x="430" y="360" width="10" height="17" rx="2"/><rect x="582" y="365" width="10" height="14" rx="2"/><rect x="762" y="205" width="11" height="20" rx="2"/><rect x="957" y="217" width="11" height="18" rx="2"/><rect x="1117" y="355" width="10" height="17" rx="2"/><rect x="1266" y="360" width="10" height="17" rx="2"/></g>
</g>

<!-- lava seams -->
<g fill="url(#lava)"><rect x="525" y="395" width="12" height="220" rx="6"/><rect x="656" y="402" width="10" height="205" rx="5"/><rect x="805" y="250" width="16" height="330" rx="8"/><rect x="1008" y="250" width="13" height="320" rx="6"/><rect x="1145" y="397" width="12" height="215" rx="6"/><rect x="1305" y="402" width="10" height="205" rx="5"/></g>

<!-- grand portal -->
<ellipse cx="910" cy="485" rx="116" ry="174" fill="#9b35ff" opacity=".26" filter="url(#blur8)"/>
<path d="M815 625V385q95-112 190 0v240z" fill="url(#portal)" stroke="#9d43ef" stroke-width="11"/>
<path d="M848 595V418q62-70 124 0v177z" fill="#1a062d"/>
<ellipse cx="910" cy="495" rx="44" ry="80" fill="#c552ff" opacity=".8" filter="url(#blur8)"/><ellipse cx="910" cy="495" rx="28" ry="52" fill="#dda1ff"/>

<!-- stairs -->
<g fill="url(#lava)" stroke="#a64b18" stroke-width="2">
 <path d="M850 625h120l12 15H838z"/><path d="M838 644h144l13 15H825z"/><path d="M824 664h171l14 16H810z"/><path d="M808 684h202l15 18H792z"/><path d="M790 707h237l16 18H773z"/><path d="M770 730h275l18 19H751z"/>
</g>

<!-- foreground -->
<path d="M0 760h535l-92 140H0z" fill="#09080d"/><path d="M1160 720h440v180h-570z" fill="#09080d"/>
<g fill="#ff8f20"><circle cx="120" cy="685" r="8"/><circle cx="158" cy="714" r="5"/><circle cx="1457" cy="686" r="8"/><circle cx="1500" cy="720" r="5"/></g>

<!-- warrior -->
<g transform="translate(1190 510)">
 <path d="M22 154h122l34 170H-8z" fill="#191a20" stroke="#38323d" stroke-width="7"/>
 <path d="M44 317h38l12 82H43zM112 317h38l18 82h-57z" fill="#0c0d11"/>
 <rect x="45" y="52" width="96" height="104" rx="13" fill="#202127" stroke="#49414c" stroke-width="7"/>
 <rect x="26" y="24" width="134" height="100" rx="15" fill="#2b2c31" stroke="#524750" stroke-width="7"/>
 <rect x="46" y="39" width="94" height="60" fill="#0b0c10"/>
 <rect x="64" y="57" width="18" height="9" fill="#ffc14a"/><rect x="105" y="57" width="18" height="9" fill="#ffc14a"/>
 <path d="M33 91-2 242h38l42-130zM145 91l42 150h-39l-38-130z" fill="#191a20"/>
 <path d="M40 154-2 307l56 18 44-140zM128 154l61 132-45 26-49-126z" fill="#22232a"/>
 <path d="M143 98 267 173l-33 116-106-87z" fill="#7b2029" stroke="#a42a35" stroke-width="4"/>
 <path d="M145 100 259 168l-25 47-95-74z" fill="#bd353b" opacity=".82"/>
 <path d="M180 278 284 120l14 9-73 163z" fill="#ffd86e" stroke="#fff1b2" stroke-width="4"/>
 <path d="M290 114 319 81l-22 49z" fill="#ff7b1a"/>
</g>

<!-- embers -->
<g fill="#ffb43f"><circle cx="225" cy="182" r="4"/><circle cx="345" cy="152" r="3"/><circle cx="1260" cy="142" r="4"/><circle cx="1340" cy="328" r="3"/><circle cx="704" cy="195" r="3"/><circle cx="1108" cy="180" r="4"/><circle cx="505" cy="565" r="3"/><circle cx="1190" cy="596" r="4"/><circle cx="1470" cy="505" r="3"/></g>
<rect width="1600" height="900" fill="none" stroke="#000" stroke-width="160" opacity=".30"/>
</svg>